Coordinates
version=1
nRows=10
nColumns=22
inDegrees=yes

Units are S.I. units (second, meters, Newtons, ...)
If the header above contains a line with 'inDegrees', this indicates whether rotational values are in degrees (yes) or radians (no).

endheader
time	pelvis_tilt	pelvis_list	pelvis_rotation	pelvis_tx	pelvis_ty	pelvis_tz	hip_flexion_r	hip_adduction_r	hip_rotation_r	knee_angle_r	ankle_angle_r	subtalar_angle_r	hip_flexion_l	hip_adduction_l	hip_rotation_l	knee_angle_l	ankle_angle_l	subtalar_angle_l	lumbar_extension	lumbar_bending	lumbar_rotation
      4.15000000	     -2.18220250	     -4.11074853	    -91.35353257	     -0.04808963	      0.93147630	      1.13657385	     -3.10091998	      2.08986422	      2.10161900	    -23.52872663	     10.51539665	      2.75852283	      9.34534782	     -7.90246342	    -14.03867232	    -14.08412095	     -1.69329830	      0.68918276	     -7.23016565	     -0.26897824	      3.17714949
      4.16000000	     -2.15843801	     -3.96155642	    -91.67411266	     -0.04561166	      0.93222893	      1.14018018	     -2.54554574	      1.84212885	      2.27089279	    -24.58549964	     10.05605310	      3.42386973	      9.15186280	     -7.74660969	    -14.26655178	    -14.05720175	     -1.53079921	      0.85880507	     -7.13347782	     -0.31449125	      3.02628206
      4.17000000	     -2.19627348	     -3.78198087	    -92.01886516	     -0.04320922	      0.93285598	      1.14358759	     -1.85851177	      1.65915322	      2.48052695	    -25.78398209	      9.51632561	      4.13684027	      8.97861902	     -7.65815680	    -14.52995447	    -13.98372019	     -1.35374886	      1.03314531	     -7.02265254	     -0.28620242	      2.88551625
      4.18000000	     -2.29858701	     -3.57143558	    -92.36252170	     -0.04081062	      0.93332440	      1.14678904	     -1.03831256	      1.54012739	      2.69404073	    -27.12692138	      8.88654162	      4.97858063	      8.84148844	     -7.63529766	    -14.81435095	    -13.88298884	     -1.12528937	      1.19281747	     -6.90162894	     -0.17092903	      2.73589883
      4.19000000	     -2.41754114	     -3.35621548	    -92.75570460	     -0.03852205	      0.93367616	      1.14976122	     -0.10663850	      1.44563072	      3.01354801	    -28.61493538	      8.15299803	      5.81458458	      8.71857712	     -7.64332303	    -15.20289438	    -13.79063245	     -0.92448947	      1.31630566	     -6.80479737	     -0.04078454	      2.62590033
      4.20000000	     -2.56647805	     -3.13169986	    -93.14791450	     -0.03625702	      0.93389081	      1.15253306	      0.93146699	      1.37944556	      3.31715689	    -30.23233887	      7.30027496	      6.79519907	      8.62758642	     -7.68644688	    -15.61807323	    -13.71278340	     -0.66734575	      1.41111040	     -6.72341653	      0.12898843	      2.50099442
      4.21000000	     -2.72513084	     -2.90789756	    -93.51195955	     -0.03397615	      0.93398274	      1.15512957	      2.05066840	      1.31353898	      3.56965481	    -31.95142188	      6.36625753	      7.99497224	      8.56510314	     -7.73938446	    -16.02684352	    -13.65833347	     -0.33257395	      1.47608978	     -6.66573554	      0.31556783	      2.32630278
      4.22000000	     -2.87201452	     -2.72036493	    -93.92007905	     -0.03184167	      0.93404754	      1.15756115	      3.20724484	      1.24208516	      3.87833890	    -33.74776219	      5.34109031	      9.14014864	      8.46514265	     -7.79248355	    -16.53201842	    -13.60438402	     -0.03165775	      1.52271717	     -6.67007290	      0.47307565	      2.19370171
      4.23000000	     -2.99898575	     -2.57532395	    -94.32374254	     -0.02979067	      0.93409909	      1.15983499	      4.37478094	      1.15372584	      4.18882138	    -35.58365978	      4.25070477	     10.28237203	      8.33794715	     -7.82719146	    -17.04185741	    -13.56369432	      0.26097882	      1.55692239	     -6.74270265	      0.59454491	      2.04623405
      4.24000000	     -3.10287063	     -2.47749988	    -94.71837402	     -0.02782467	      0.93415867	      1.16201036	      5.52826601	      1.03922209	      4.46331717	    -37.42142558	      3.15262759	     11.33009764	      8.16233155	     -7.83508885	    -17.56028108	    -13.50700299	      0.54922814	      1.58676258	     -6.87731557	      0.67657639	      1.88724863
